<svg height="512" viewBox="0 0 60 60" width="512" xmlns="http://www.w3.org/2000/svg"><g id="Page-1" fill="none" fill-rule="evenodd"><g id="033---Flip-Calendar" fill="#3B475A" fill-rule="nonzero"><path id="Shape" d="m57 5h-1.09c-.4853307-2.88574548-2.9837271-4.99904376-5.91-4.99904376s-5.4246693 2.11329828-5.91 4.99904376h-5.18c-.4853307-2.88574548-2.9837271-4.99904376-5.91-4.99904376s-5.4246693 2.11329828-5.91 4.99904376h-4.18c-.4853307-2.88574548-2.9837271-4.99904376-5.91-4.99904376s-5.4246693 2.11329828-5.91 4.99904376h-2.09c-1.65685425 0-3 1.34314575-3 3v32c.08367067 4.484459-1.87424657 8.7641379-5.322 11.633-.61293931.5180376-.83643341 1.3641157-.55928407 2.1172729.27714933.7531573.99575709 1.2525575 1.79828407 1.2497271h4.083v2c0 1.6568542 1.34314575 3 3 3h48c1.6568542 0 3-1.3431458 3-3v-49c0-1.65685425-1.3431458-3-3-3zm-7-3c1.8184116.00681482 3.4034067 1.23931486 3.858 3h-7.716c.4545933-1.76068514 2.0395884-2.99318518 3.858-3zm-17 0c1.8184116.00681482 3.4034067 1.23931486 3.858 3h-7.716c.4545933-1.76068514 2.0395884-2.99318518 3.858-3zm-16 0c1.8184116.00681482 3.4034067 1.23931486 3.858 3h-7.716c.4545933-1.76068514 2.0395884-2.99318518 3.858-3zm41 55c0 .5522847-.4477153 1-1 1h-48c-.55228475 0-1-.4477153-1-1v-2h43.2c.7912915-.0006507 1.565094-.232861 2.226-.668 1.9809183-1.3738868 3.55979-3.2509975 4.574-5.438zm-5.671-4.341c-.3352072.2209486-.7275281.3394441-1.129.341l-49.109.058c3.80358719-3.2648102 5.96704491-8.0457259 5.909-13.058v-32c0-.55228475.44771525-1 1-1h2.09c.4898665 2.88330337 2.9853841 4.9945704 5.91 5 .5522847 0 1-.4477153 1-1s-.4477153-1-1-1c-1.8184116-.00681482-3.4034067-1.23931486-3.858-3h13.948c.4898665 2.88330337 2.9853841 4.9945704 5.91 5 .5522847 0 1-.4477153 1-1s-.4477153-1-1-1c-1.8184116-.00681482-3.4034067-1.23931486-3.858-3h14.948c.4898665 2.88330337 2.9853841 4.9945704 5.91 5 .5522847 0 1-.4477153 1-1s-.4477153-1-1-1c-1.8184116-.00681482-3.4034067-1.23931486-3.858-3h10.858c.5522847 0 1 .44771525 1 1v32c0 5.434-2.226 10.4-5.671 12.659z"/><path id="Shape" d="m24 37c3.3123376-.0033074 5.9966926-2.6876624 6-6v-8c0-3.3137085-2.6862915-6-6-6s-6 2.6862915-6 6v8c.0033074 3.3123376 2.6876624 5.9966926 6 6zm-4-14c0-2.209139 1.790861-4 4-4s4 1.790861 4 4v8c0 2.209139-1.790861 4-4 4s-4-1.790861-4-4z"/><path id="Shape" d="m35 35c-.5522847 0-1 .4477153-1 1s.4477153 1 1 1h8c.5522847 0 1-.4477153 1-1s-.4477153-1-1-1h-3v-17c-.0000863-.4043959-.2437275-.7689341-.6173454-.923678-.373618-.1547439-.8036603-.0692299-1.0896546.216678l-4 4c-.3789722.3923789-.3735524 1.0160848.0121814 1.4018186s1.0094397.3911536 1.4018186.0121814l2.293-2.293v14.586z"/><path id="Shape" d="m48 40h-32c-.5522847 0-1 .4477153-1 1s.4477153 1 1 1h32c.5522847 0 1-.4477153 1-1s-.4477153-1-1-1z"/><path id="Shape" d="m46 45h-28c-.5522847 0-1 .4477153-1 1s.4477153 1 1 1h28c.5522847 0 1-.4477153 1-1s-.4477153-1-1-1z"/></g></g></svg>