<?xml version="1.0"?>
<svg xmlns="http://www.w3.org/2000/svg" id="Capa_1" enable-background="new 0 0 512 512" height="512px" viewBox="0 0 512 512" width="512px"><g><g><circle cx="286" cy="502" r="10" data-original="#000000" class="active-path" data-old_color="#000000" fill="#3B475A"/><path d="m66 10v492c0 5.522 4.477 10 10 10h165c5.523 0 10-4.478 10-10s-4.477-10-10-10h-95v-40h280v40h-95c-5.523 0-10 4.478-10 10s4.477 10 10 10h105c5.523 0 10-4.478 10-10v-492c0-5.522-4.477-10-10-10h-360c-5.523 0-10 4.478-10 10zm20 482v-412h40v412zm60-412h220v352h-220zm280 352h-40v-412h40zm-60-412v40h-280v-40z" data-original="#000000" class="active-path" data-old_color="#000000" fill="#3B475A"/></g></g> </svg>
