<?xml version="1.0"?>
<svg xmlns="http://www.w3.org/2000/svg" xmlns:xlink="http://www.w3.org/1999/xlink" version="1.1" id="Capa_1" x="0px" y="0px" viewBox="0 0 511.998 511.998" style="enable-background:new 0 0 511.998 511.998;" xml:space="preserve" width="512px" height="512px"><g><g>
	<g>
		<path d="M507.472,175.195c-3.63-4.286-8.96-6.757-14.577-6.757h-53.031L335.717,26.582c-6.247-8.514-18.2-10.329-26.702-4.095    c-8.508,6.247-10.336,18.207-4.095,26.708l87.546,119.244H114.439l87.546-119.244c6.247-8.508,4.407-20.461-4.095-26.708    c-8.502-6.241-20.461-4.407-26.708,4.095L67.034,168.439h-47.93c-5.617,0-10.947,2.471-14.577,6.757s-5.19,9.947-4.267,15.487    L48.021,477.25c1.535,9.208,9.508,15.965,18.843,15.965h378.269c9.342,0,17.309-6.75,18.843-15.965l47.761-286.567    C512.662,185.149,511.102,179.481,507.472,175.195z M428.953,455.006H83.047L41.654,206.648h428.692L428.953,455.006z" data-original="#000000" class="active-path" data-old_color="#000000" fill="#E5E5E5"/>
	</g>
</g><g>
	<g>
		<path d="M256,251.225c-10.552,0-19.104,8.552-19.104,19.104v125.454c0,10.552,8.552,19.104,19.104,19.104    c10.552,0,19.104-8.546,19.104-19.105V270.329C275.104,259.777,266.552,251.225,256,251.225z" data-original="#000000" class="active-path" data-old_color="#000000" fill="#E5E5E5"/>
	</g>
</g><g>
	<g>
		<path d="M354.706,251.225c-10.552,0-19.104,8.552-19.104,19.104v125.454c0,10.552,8.552,19.104,19.104,19.104    c10.553,0,19.105-8.546,19.104-19.105V270.329C373.81,259.777,365.258,251.225,354.706,251.225z" data-original="#000000" class="active-path" data-old_color="#000000" fill="#E5E5E5"/>
	</g>
</g><g>
	<g>
		<path d="M157.294,251.225c-10.552,0-19.104,8.552-19.104,19.104v125.454c0,10.552,8.552,19.104,19.104,19.104    s19.104-8.546,19.104-19.105V270.329C176.398,259.777,167.846,251.225,157.294,251.225z" data-original="#000000" class="active-path" data-old_color="#000000" fill="#E5E5E5"/>
	</g>
</g></g> </svg>
