<?xml version="1.0"?>
<svg xmlns="http://www.w3.org/2000/svg" id="Capa_1" enable-background="new 0 0 512 512" height="512px" viewBox="0 0 512 512" width="512px" class="hovered-paths"><g><g><g><path d="m326.285 190.33h-279.962c-5.523 0-10-4.477-10-10v-162.834c0-5.523 4.477-10 10-10h279.962c5.523 0 10 4.477 10 10v162.834c0 5.523-4.477 10-10 10z" fill="#dd5790" data-original="#DD5790" class="" style="fill:#FFC285" data-old_color="#dd5790"/></g><g><path d="m326.291 7.496h-51.158c5.52 0 9.994 4.475 9.994 9.994v162.846c0 5.52-4.475 9.994-9.994 9.994h51.158c5.52 0 9.994-4.475 9.994-9.994v-162.846c0-5.519-4.475-9.994-9.994-9.994z" fill="#da387d" data-original="#DA387D" class="" style="fill:#FBAF62" data-old_color="#da387d"/></g><g><path d="m422.943 262.933h-327.844c-11.046 0-20-8.954-20-20v-86.7c0-11.046 8.954-20 20-20h327.844c11.046 0 20 8.954 20 20v86.7c0 11.046-8.954 20-20 20z" fill="#dae7ef" data-original="#DAE7EF" class=""/></g><g><path d="m422.955 136.233h-15.099v71.624c0 11.039-8.949 19.989-19.989 19.989h-312.768v15.099c0 11.039 8.949 19.989 19.989 19.989h327.867c11.039 0 19.989-8.949 19.989-19.989v-86.723c-.001-11.04-8.95-19.989-19.989-19.989z" fill="#c1d5e4" data-original="#C1D5E4" class=""/></g><g><path d="m288.099 339.942h-58.155c-2.76 0-4.997 2.237-4.997 4.997v16.161c0 8.148 1.705 16.206 5.004 23.656 3.3 7.45 5.004 15.508 5.004 23.656v91.094c0 2.76 2.237 4.997 4.997 4.997h38.139c2.76 0 4.997-2.237 4.997-4.997v-91.094c0-8.148 1.705-16.206 5.004-23.656 3.3-7.45 5.004-15.508 5.004-23.656v-16.16c0-2.76-2.238-4.998-4.997-4.998z" fill="#407093" data-original="#407093" class="hovered-path active-path" style="fill:#3C3C3C" data-old_color="#407093"/></g><g><path d="m288.099 339.943h-23.032c2.76 0 4.997 2.237 4.997 4.997v16.161c0 8.148-1.705 16.206-5.004 23.656-3.3 7.45-5.004 15.508-5.004 23.656v91.094c0 2.76-2.237 4.997-4.997 4.997h23.032c2.76 0 4.997-2.237 4.997-4.997v-91.094c0-8.148 1.705-16.206 5.004-23.656 3.299-7.45 5.004-15.508 5.004-23.656v-16.161c0-2.76-2.238-4.997-4.997-4.997z" fill="#2b4d66" data-original="#2B4D66" class="" style="fill:#3C3C3C" data-old_color="#2b4d66"/></g><g><path d="m113.875 136.233v42.725c0 14.903 12.081 26.984 26.985 26.984 5.703 0 10.989-1.772 15.346-4.793 1.316-.913 3.114.051 3.114 1.653v3.446c0 14.903 12.081 26.984 26.984 26.984 14.903 0 26.985-12.081 26.985-26.985v-20.91c0-1.105.895-2 2-2h70.717c8.892 0 16.776-4.304 21.691-10.94.777-1.049 2.379-1.049 3.156 0 4.915 6.636 12.799 10.94 21.691 10.94 3.843 0 7.496-.807 10.804-2.257 1.183-.518 2.557.257 2.732 1.537 1.795 13.161 13.073 23.304 26.727 23.304 14.903 0 26.984-12.081 26.984-26.984v-42.704z" fill="#df75a5" data-original="#DF75A5" class="" style="fill:#FBAF62" data-old_color="#df75a5"/></g><g><g><path d="m376.18 136.233v42.704c0 10.669-6.193 19.889-15.178 24.269 3.566 1.739 7.571 2.716 11.805 2.716 14.903 0 26.984-12.081 26.984-26.984v-42.704h-23.611z" fill="#dd5790" data-original="#DD5790" class="" style="fill:#FFC285" data-old_color="#dd5790"/></g></g><g><path d="m156.928 325.841c0 11.876-9.627 21.503-21.503 21.503s-21.503-9.627-21.503-21.503c0-8.204 10.263-23.986 16.608-32.96 2.391-3.382 7.399-3.382 9.79 0 6.346 8.973 16.608 24.755 16.608 32.96z" fill="#eaaadd" data-original="#EAAADD" class="" style="fill:#FFC992" data-old_color="#eaaadd"/></g><g><path d="m140.32 292.88c-2.392-3.382-7.399-3.382-9.79 0-.209.295-.422.598-.638.908 4.628 7.618 8.742 15.847 8.742 21.041 0 11.876-9.627 21.503-21.503 21.503-.162 0-.319-.021-.481-.024 3.677 6.581 10.702 11.036 18.776 11.036 11.876 0 21.503-9.627 21.503-21.503-.001-8.205-10.263-23.987-16.609-32.961z" fill="#dd5790" data-original="#DD5790" class="" style="fill:#FFC285" data-old_color="#dd5790"/></g><g><path d="m36.323 47.299c4.14 0 7.496-3.355 7.496-7.496v-22.313c0-1.378 1.121-2.499 2.499-2.499h279.974c1.378 0 2.499 1.12 2.499 2.499v81.643c0 4.14 3.356 7.496 7.496 7.496s7.496-3.355 7.496-7.496v-81.643c0-9.644-7.846-17.49-17.49-17.49h-279.976c-9.644 0-17.49 7.846-17.49 17.49v22.313c0 4.141 3.356 7.496 7.496 7.496z" data-original="#000000" class="" style="fill:#000000"/><path d="m455.689 192.087h-5.249v-35.865c0-15.154-12.329-27.484-27.484-27.484h-327.868c-15.155 0-27.484 12.33-27.484 27.484v26.613h-21.287c-1.378 0-2.499-1.12-2.499-2.499v-105.658c0-4.14-3.356-7.496-7.496-7.496s-7.496 3.355-7.496 7.496v105.658c0 9.644 7.846 17.49 17.49 17.49h21.286v45.119c0 15.154 12.329 27.484 27.484 27.484h327.867c15.155 0 27.484-12.33 27.484-27.484v-35.866h5.249c6.889 0 12.493 5.604 12.493 12.493v41.149c0 8.656-6.464 16.101-15.035 17.316l-173.7 24.631c-15.126 2.145-26.709 14.737-27.825 29.779h-21.678c-6.889 0-12.493 5.604-12.493 12.493v16.162c0 9.252 1.9 18.232 5.646 26.691 2.894 6.536 4.362 13.474 4.362 20.621v91.094c0 6.889 5.604 12.493 12.493 12.493h38.138c6.889 0 12.493-5.604 12.493-12.493v-16.814c0-4.14-3.356-7.496-7.496-7.496s-7.496 3.355-7.496 7.496v14.315h-33.141v-88.596c0-9.252-1.9-18.232-5.647-26.692-2.894-6.535-4.362-13.473-4.362-20.62v-13.663h53.162v13.663c0 7.147-1.467 14.085-4.362 20.62-3.747 8.46-5.647 17.44-5.647 26.692v37.708c0 4.14 3.356 7.496 7.496 7.496s7.496-3.355 7.496-7.496v-37.708c0-7.147 1.468-14.085 4.362-20.621 3.746-8.459 5.646-17.439 5.646-26.691v-16.161c0-6.889-5.604-12.493-12.493-12.493h-21.398c1.059-7.605 7.08-13.834 14.852-14.936l173.7-24.631c15.918-2.257 27.921-16.083 27.921-32.159v-41.149c0-15.155-12.33-27.485-27.484-27.485zm-293.969 2.298c-1.387-.726-2.896-1.085-4.398-1.085-1.89 0-3.77.568-5.388 1.689-3.261 2.261-7.091 3.457-11.074 3.457-10.746 0-19.489-8.743-19.489-19.489v-35.229h270.925v35.207c0 10.746-8.743 19.489-19.489 19.489-9.695 0-17.992-7.231-19.3-16.82-.398-2.919-2.175-5.524-4.751-6.97-2.574-1.443-5.72-1.601-8.416-.42-2.465 1.079-5.088 1.627-7.796 1.627-6.235 0-11.946-2.882-15.667-7.906-1.772-2.393-4.614-3.822-7.602-3.822s-5.83 1.429-7.601 3.821c-3.721 5.024-9.433 7.907-15.668 7.907h-72.717c-4.14 0-7.496 3.355-7.496 7.496v22.91c0 10.746-8.743 19.489-19.489 19.489s-19.489-8.743-19.489-19.489v-3.446c0-3.545-1.952-6.77-5.095-8.416zm273.728 48.56c0 6.889-5.604 12.493-12.493 12.493h-327.867c-6.889 0-12.493-5.604-12.493-12.493v-86.723c0-6.889 5.604-12.493 12.493-12.493h11.292v35.229c0 19.013 15.468 34.48 34.48 34.48 3.913 0 7.744-.653 11.367-1.919 2.545 16.52 16.858 29.209 34.078 29.209 19.013 0 34.48-15.468 34.48-34.48v-15.414h65.221c8.643 0 16.964-3.302 23.269-9.053 6.304 5.752 14.625 9.053 23.269 9.053 2.584 0 5.127-.283 7.607-.843 4.658 13.718 17.721 23.426 32.657 23.426 19.013 0 34.48-15.468 34.48-34.48v-35.207h15.668c6.889 0 12.493 5.604 12.493 12.493v86.722z" data-original="#000000" class="" style="fill:#000000"/><path d="m135.425 282.847c-4.372 0-8.49 2.134-11.015 5.706-17.984 25.432-17.984 34.355-17.984 37.287 0 15.99 13.009 28.999 28.999 28.999s28.999-13.009 28.999-28.999c0-2.932 0-11.855-17.983-37.286-2.526-3.573-6.644-5.707-11.016-5.707zm0 57.001c-7.724 0-14.008-6.284-14.008-14.008 0-3.15 3.698-12.036 14.008-26.884 10.309 14.847 14.008 23.735 14.008 26.884 0 7.724-6.284 14.008-14.008 14.008z" data-original="#000000" class="" style="fill:#000000"/></g></g></g> </svg>
