<?xml version="1.0" encoding="utf-8"?>
<!-- Generator: Adobe Illustrator 22.1.0, SVG Export Plug-In . SVG Version: 6.00 Build 0)  -->
<svg version="1.1" id="Warstwa_1" xmlns="http://www.w3.org/2000/svg" xmlns:xlink="http://www.w3.org/1999/xlink" x="0px" y="0px"
	 viewBox="0 0 1000 600" style="enable-background:new 0 0 1000 600;" xml:space="preserve">
<style type="text/css">
	.st0{fill-rule:evenodd;clip-rule:evenodd;fill:#3E3636;}
	.st1{fill-rule:evenodd;clip-rule:evenodd;fill:#FBAF62;}
	.st2{fill:#FAB075;}
	.st3{fill:#FFFFFF;}
	.st4{fill:none;}
	.st5{fill:#FBAF62;}
</style>
<path class="st0" d="M182.8,155.9c-1.4,143,87.8,89.4,87.8,62.3c-9,0-2.2,0.4-8.6,10.6c-8.5,13.5-33.2,16.4-42.5-4.8
	c-4-9.1-11.6-97,15.9-100.2c4.4-0.5,14.8,0.1,20,4.3c6.6,5.3,5.6,1.2,6.4,1.2C266.4,129.4,183.6,74.8,182.8,155.9z"/>
<path class="st0" d="M314.8,122.2c-11,82.7,20.6,125.1,52.6,124.2c22.1-0.6,53.2-16.7,47.8-79.9c-2.4-28.4,0.4-42.1-1.2-48
	c-2.6,0.2-3.7-1.7-5,0c-6.2,8.5,18.6,73-14.8,110.7c-48.7,55-44.5-83.2-43.9-108.4C350.7,112.9,315.2,119.5,314.8,122.2L314.8,122.2
	z M403,218.7c-0.5,0-0.1-0.1,0.2-0.2L403,218.7z"/>
<path class="st0" d="M456.5,115c1,1.4,8.1,121.2,7.2,135.3c0,0.1,96.7,7.9,98-53.5c1.7-79.6-27.8-83.9-93.5-83.9
	C466.8,112.9,454.9,112.9,456.5,115L456.5,115z M490.9,123.4c-1.1-1.8,3.4-0.2,4.3-0.2c43.7,0,63.4,3.7,62.2,70.8
	c-0.9,51.8-61,45.4-61,45.4C496.9,227.5,491.6,124.6,490.9,123.4z"/>
<path class="st0" d="M609.2,188.9c12.7,13.7,62.9,59.6,77.4,65.6c-0.7-11.3-1.8-120-2-138.9c0-3.9-3.7-0.8-4.2,2.2
	c-0.9,5.2-0.8,37.5-0.3,69.3c-13.7-14-69.7-74.5-72.2-77.6c0,0-0.1-0.1-0.1-0.1l0,0c0,0,0-0.1-0.1-0.1c-1-1-3.4,1.4-3.8,3.8
	c-1.8,10.7,0.4,136.2,2.5,136.2c1.8,0,2.4,0,3.7,0.5C610,244.6,609.6,217.8,609.2,188.9z"/>
<path class="st1" d="M824.6,138.5c-32.4,60.7-40.6,73.9-70.8,114.4c-19.6-12.1-25.5-14.4-25.4-14.4c1.9-0.9,19.5-33.4,35.2-62.8
	c-10.6-18.2-19.7-33.7-22.2-38c0,0-3.2-7.3-7-12.2c-2.8-3.7,1.9-8.2,3.4-6c1.7,2.3,14.5,24.4,29.1,49.9c10-18.8,18.7-35.1,21.1-39.5
	c0,0,3.8-6.2,6.5-11.4C798.5,111.2,826,136,824.6,138.5z"/>
<path class="st1" d="M209.7,354.6c1,1.4,8.1,121.2,7.2,135.3c0,0.1,96.7,7.9,98-53.5c1.7-79.6-27.8-83.9-93.5-83.9
	C220,352.5,208.1,352.6,209.7,354.6L209.7,354.6z M244,363c-1.1-1.8,3.4-0.2,4.3-0.2c43.7,0,63.4,3.7,62.2,70.8
	c-0.9,51.8-61,45.4-61,45.4C250.1,467.1,244.7,364.2,244,363z"/>
<path class="st0" d="M389.4,358.5c-16.7,0.2-32.4-0.3-36-0.8c-0.4-0.1-0.1,2.6-0.2,5.1c-0.1,2.7,52.8,2.5,54.6,2.6
	c2.1,0.1,4,0.2,5.6,0.3c-16.4,24.6-65.2,97.3-73.4,113.2c1.4,0.3,40.1,6.5,40.1,4.9c14.7,1.1,45.6,1,47,1.1c16.5,1.1,16-1.1,16-7.1
	c0,0-16.9,0-34.3,0.2c-9.7,0.1-19.1,0-25.9-0.2c11.8-22.2,58.8-97.1,70.9-113.9C460.5,354.4,395.3,358.4,389.4,358.5z"/>
<path class="st0" d="M493.1,358.2c-3.2,5.7,2.3,109.3,5,130.4c22.8,0,29,1.1,28.9,1.1c-2.1-2.9,1.7-107.3,1.8-120
	c0,0-0.2-7.1-0.1-12.7C528.9,348.9,494.4,355.8,493.1,358.2z"/>
<path class="st0" d="M574.4,355.7c-3.2,5.7,2.3,109.3,5,130.4c8.4,0,88.9,6.8,88.9-2.7c0-6.1-2.1-1.7-13.9-1.7
	c-4.8,0-43.2-0.9-44-2.1c-1.4-2-1.5-43.4-1.5-49.5c3,0,17.2-0.3,18.5-0.3c0.1-1.3,1.4-4.8,1.4-5.3c-4.7,0.1-13.5-0.3-19-1.1
	c-1.3-5.3,0.2-37.3,0.3-56.3c0-0.1,3.8,0.6,7.7,0.7c10.6,0.3,30.6,2.6,38.9-0.9c0.5-3,1.5-5.6,1.1-10.1c-3.2-0.3-16.2-0.9-21.8-1.4
	C628,354.6,575.8,353.3,574.4,355.7z"/>
<g>
	<path class="st0" d="M705.9,425.4c12.7,13.7,62.9,59.6,77.4,65.6c-0.7-11.3-1.8-120-2-138.9c0-3.9-3.7-0.8-4.2,2.2
		c-0.9,5.2-0.8,37.5-0.3,69.3c-13.7-14-69.7-74.5-72.2-77.6c0,0-0.1-0.1-0.1-0.1l0,0c0,0,0-0.1-0.1-0.1c-1-1-3.4,1.4-3.8,3.8
		c-1.8,10.7,0.4,136.2,2.5,136.2c1.8,0,2.4,0,3.7,0.5C706.7,481.1,706.3,454.3,705.9,425.4z"/>
	<path class="st0" d="M760.2,300.1c-2.4-0.2-25.1,21.5-29.2,26.6c7.4,9.3,9.1,12,9.1,12c0-1.4,25.9-19.5,29-21.9c0,0,1.6-1.4,3-2.4
		C774,312.9,761.2,300.2,760.2,300.1z"/>
</g>
<g>
	<g>
		<rect x="490.5" y="309.6" class="st2" width="37.9" height="8"/>
	</g>
	<g>
		<rect x="492.8" y="319.4" class="st2" width="33.4" height="20.1"/>
	</g>
	<g>
		<rect x="504.8" y="309.1" class="st3" width="9.4" height="30.3"/>
	</g>
	<g>
		<path class="st4" d="M516,295.9c-0.2-0.9-0.7-1.1-1.2-1.1c-0.1,0-0.3,0-0.4,0c-2.9,0.4-3.6,6.9-3.4,11.5
			C514.9,303.3,516.6,298.3,516,295.9z"/>
		<path class="st4" d="M501.2,299.6c-0.8,0-1.3,0.3-1.7,1c-0.6,1-0.7,2.1-0.1,3.2c1.3,2.4,5.1,4,8.8,3.9
			C506.8,302.1,503.3,299.6,501.2,299.6z"/>
		<path class="st2" d="M529.4,303c-0.7-0.3-1.5,0-1.8,0.7c-0.2,0.5-2.3,5-6.7,3.2c-2-0.8-4.2-0.9-6-0.8c3-3.5,4.4-8,3.6-10.9
			c-0.6-2.2-2.3-3.4-4.6-3c-3.8,0.6-5.2,5.2-5.6,9.5c-1.8-2.8-4.4-4.8-7.2-4.8c-1.7,0-3.1,0.8-4,2.2c-1.2,1.9-1.2,4-0.1,5.9
			c1.7,3.1,6.1,5.3,10.6,5.3c0.8,0,1.5-0.1,2.3-0.2l0,0c0.1,0,0.1,0,0.2,0c0.2,0,0.4,0,0.6-0.1c0,0,0,0,0.1,0l0.4-0.1l0-0.1
			c1.4-0.5,5.3-1.8,8.7-0.4c3.6,1.5,6.2,0.1,7.7-1.4c1.6-1.5,2.3-3.2,2.4-3.3C530.4,304.1,530.1,303.3,529.4,303z M514.4,294.9
			c0.1,0,0.3,0,0.4,0c0.5,0,1,0.1,1.2,1.1c0.6,2.4-1.1,7.4-5,10.5C510.8,301.8,511.5,295.3,514.4,294.9z M499.4,303.7
			c-0.6-1.1-0.6-2.1,0.1-3.2c0.4-0.7,1-1,1.7-1c2.1,0,5.6,2.6,6.9,8C504.4,307.7,500.7,306.1,499.4,303.7z"/>
	</g>
	<g>
		<rect x="507.9" y="309.6" class="st2" width="2.7" height="29.9"/>
	</g>
</g>
<g>
	<g>
		<path class="st5" d="M821.7,128.9c0.7,0.5,1.7,0.4,2.3-0.3c5.3-6.9,11.4-5.8,11.5-5.8c0.9,0.2,1.7-0.4,1.9-1.3
			c0.2-0.9-0.4-1.7-1.3-1.9c-0.3-0.1-8.2-1.5-14.7,7C820.8,127.3,821,128.3,821.7,128.9z"/>
	</g>
	<path class="st5" d="M807.4,118c0.7,0.5,1.7,0.4,2.3-0.3c6.5-8.5,3.1-15.7,2.9-16c-0.4-0.8-1.4-1.1-2.2-0.8
		c-0.8,0.4-1.1,1.4-0.8,2.2c0,0.1,2.7,5.7-2.6,12.6C806.6,116.4,806.7,117.4,807.4,118L807.4,118z"/>
	<path class="st5" d="M813.6,120.6c-0.5,0.7-0.4,1.7,0.3,2.3c0.7,0.5,1.7,0.4,2.3-0.3c0.8-0.5,3.6,0.7,4.8-0.9
		c1.2-1.6-0.6-4-0.4-4.9c0.8-0.5,3.6,0.7,4.8-0.9c1.2-1.6-0.6-4-0.4-4.9c0.8-0.5,3.6,0.7,4.8-0.9c1.2-1.6-0.6-4-0.4-4.9
		c0.8-0.5,3.6,0.7,4.8-0.9c1.2-1.6-0.7-4-0.4-4.9c0.5-0.7,0.4-1.7-0.3-2.3c-0.7-0.5-1.7-0.4-2.3,0.3c-1.1,1.4-0.6,3.2-0.2,4.5
		c-1.3-0.1-3.1-0.1-4.3,1.4c-1.1,1.4-0.6,3.2-0.2,4.5c-1.3-0.1-3.1-0.1-4.3,1.4c-1.1,1.4-0.6,3.2-0.2,4.5c-1.3-0.1-3.1-0.1-4.3,1.4
		c-1.1,1.4-0.6,3.2-0.2,4.5C816.5,119.2,814.7,119.2,813.6,120.6L813.6,120.6z"/>
	<path class="st5" d="M820.9,105.7c0.5-0.7,0.4-1.7-0.3-2.3c-0.7-0.5-1.7-0.4-2.3,0.3c-0.5,0.7-0.4,1.7,0.3,2.3
		C819.4,106.6,820.4,106.4,820.9,105.7z"/>
	<circle class="st5" cx="832.6" cy="114.6" r="1.6"/>
	<path class="st5" d="M831.1,129.9c-0.5,0.7-0.4,1.7,0.3,2.3c0.7,0.5,1.7,0.4,2.3-0.3c0.5-0.7,0.4-1.7-0.3-2.3
		C832.7,129.1,831.7,129.2,831.1,129.9z"/>
	<path class="st5" d="M805.2,110.1c0.5-0.7,0.4-1.7-0.3-2.3s-1.7-0.4-2.3,0.3c-0.5,0.7-0.4,1.7,0.3,2.3S804.7,110.8,805.2,110.1z"/>
</g>
</svg>
